# xmcd
#
# Track frame offsets:
#	150
#	35711
#	70160
#	90042
#	109912
#	134961
#	162797
#	194350
#	231981
#	261198
#	278411
#	305438
#	324510
#
# Disc length: 4689 seconds
#
# Revision: 3
# Processed by: cddbd v1.5.2PL0 Copyright (c) Steve Scherf et al.
# Submitted via: audiograbber 1.83.01
#
DISCID=b5124f0d
DTITLE=—борник - Time Blues  vol.6
DYEAR=2008
DGENRE=Blues
TTITLE0=The RedHot Blues - One Bottle
TTITLE1=Smokin' Gun - Nothing Good To Say
TTITLE2=Chick Willis - What Goes Up
TTITLE3=Rudi Rotta Band - Dear Prudence
TTITLE4=Pat Savage Band - Nothing's Gonna Stop Me Now
TTITLE5=Duke Robillard - Use What You Got
TTITLE6=Danny Cowan Group - When The Blues Follow You Home
TTITLE7=Roger Hurricane Wilson - The Quest
TTITLE8=John Ussery - Did You Ever Love A Woman
TTITLE9=Jerry Waddel - Walkin' In The Night
TTITLE10=Tino Gonzales - Peace And Wine
TTITLE11=The Kelly Richey Band - Blues Don't Lie
TTITLE12=SmokeHouse - Cadillac In The Swamp
EXTD=
EXTT0=
EXTT1=
EXTT2=
EXTT3=
EXTT4=
EXTT5=
EXTT6=
EXTT7=
EXTT8=
EXTT9=
EXTT10=
EXTT11=
EXTT12=
PLAYORDER=
